<svg width="182" height="172" viewBox="0 0 182 172" fill="none" xmlns="http://www.w3.org/2000/svg">
<path d="M11.0481 38.0774L75 1.1547L138.952 38.0774V111.923L75 148.845L11.0481 111.923V38.0774Z" stroke="#F4CF4E" stroke-width="2"/>
<path d="M28.0481 60.0774L92 23.1547L155.952 60.0774V133.923L92 170.845L28.0481 133.923V60.0774Z" stroke="#F4CF4E" stroke-width="2"/>
<path d="M43.0481 38.0774L107 1.1547L170.952 38.0774V111.923L107 148.845L43.0481 111.923V38.0774Z" stroke="#F4CF4E" stroke-width="2"/>
<path d="M91.848 97.288C91.048 97.288 90.136 97.192 89.112 97C89.24 95.464 89.352 93.336 89.448 90.616C89.544 87.864 89.592 85.192 89.592 82.6C89.592 79.784 89.512 77.384 89.352 75.4C85.448 75.432 82.92 75.64 81.768 76.024C81.608 75.32 81.528 74.648 81.528 74.008C81.528 73.464 81.608 72.712 81.768 71.752C83.016 71.88 84.712 71.992 86.856 72.088C89 72.152 91.064 72.184 93.048 72.184C97.624 72.184 100.472 71.976 101.592 71.56C101.752 72.296 101.832 72.984 101.832 73.624C101.832 74.136 101.752 74.872 101.592 75.832C99.704 75.672 97.176 75.544 94.008 75.448C93.816 79.544 93.72 83.096 93.72 86.104C93.72 91.96 93.976 95.592 94.488 97C93.528 97.192 92.648 97.288 91.848 97.288Z" fill="#1B286F"/>
</svg>
